<svg width="77" height="61" viewBox="0 0 77 61" fill="none" xmlns="http://www.w3.org/2000/svg">
<path fill-rule="evenodd" clip-rule="evenodd" d="M13.5851 44.4972C12.5827 43.5046 12.5827 41.8953 13.5851 40.9027L24.0902 30.5L13.5851 20.0972C12.5827 19.1046 12.5827 17.4953 13.5851 16.5027C14.5874 15.5102 16.2125 15.5102 17.2149 16.5027L29.5349 28.7027C30.0162 29.1794 30.2866 29.8259 30.2866 30.5C30.2866 31.1741 30.0162 31.8205 29.5349 32.2972L17.2149 44.4972C16.2125 45.4898 14.5874 45.4898 13.5851 44.4972ZM32.0651 44.4972C31.0627 43.5046 31.0627 41.8953 32.0651 40.9027L42.5702 30.5L32.0651 20.0972C31.0627 19.1046 31.0627 17.4953 32.0651 16.5027C33.0674 15.5102 34.6925 15.5102 35.6949 16.5027L48.0149 28.7027C49.0172 29.6953 49.0172 31.3046 48.0149 32.2972L35.6949 44.4972C34.6925 45.4898 33.0674 45.4898 32.0651 44.4972Z" fill="white"/>
<path fill-rule="evenodd" clip-rule="evenodd" d="M49.5184 44.4972C48.5161 43.5046 48.5161 41.8953 49.5184 40.9027L60.0235 30.5L49.5184 20.0972C48.5161 19.1046 48.5161 17.4953 49.5184 16.5027C50.5208 15.5102 52.1459 15.5102 53.1482 16.5027L65.4682 28.7027C66.4706 29.6953 66.4706 31.3046 65.4682 32.2972L53.1482 44.4972C52.1459 45.4898 50.5208 45.4898 49.5184 44.4972Z" fill="white"/>
</svg>
